<svg xmlns:xlink="http://www.w3.org/1999/xlink" xmlns="http://www.w3.org/2000/svg" class="icon" focusable="false" aria-hidden="true" width="96"  height="96" ><defs><symbol viewBox="0 0 96 96" id="cart-regular" xmlns="http://www.w3.org/2000/svg"><path d="M72.817 71.324c5.522 0 10 4.478 10 10 0 5.524-4.477 10-10 10s-10-4.476-10-10c0-5.522 4.477-10 10-10zm-34.946 0c5.523 0 10 4.478 10 10 0 5.524-4.477 10-10 10-5.522 0-10-4.476-10-10 0-5.521 4.479-10 10-10zm34.946 5a5.001 5.001 0 000 10 5 5 0 100-10zm-34.946 0a5 5 0 10.001 9.999 5 5 0 00-.001-9.999zM13.674 5c1.62 0 3.11 1.117 3.6 2.648l.054.186 3.208 12.292h70.035c2.126 0 3.61 1.88 3.194 3.914l-.041.18-9.398 36.292c-.405 1.566-1.849 2.747-3.459 2.835l-.194.006H29.57c-1.619 0-3.11-1.118-3.6-2.65l-.054-.185L12.725 10l-11.614.007-.002-5L13.674 5zm74.65 20.126H21.842l8.674 33.226H79.72l8.604-33.226z"></path></symbol></defs>
								<use xlink:href="#cart-regular" href="#cart-regular"></use>
							</svg>