<svg xmlns:xlink="http://www.w3.org/1999/xlink" xmlns="http://www.w3.org/2000/svg" class="play" focusable="false" aria-hidden="true" width="96"  height="96" ><defs><symbol viewBox="0 0 96 96" id="play-bold" xmlns="http://www.w3.org/2000/svg"><path d="M19.384 6.922c1.7-.797 3.663-.64 5.29.375l.22.144 52.35 35.87c1.578 1.081 2.513 2.805 2.513 4.69 0 1.799-.853 3.452-2.302 4.538l-.211.15-52.35 35.871a5.72 5.72 0 01-3.232 1.024c-.873 0-1.729-.21-2.509-.62-1.755-.926-2.823-2.704-2.905-4.712L16.242 84V12c0-2.026.999-3.85 2.697-4.844l.216-.12.229-.114z"></path></symbol></defs><use xlink:href="#play-bold" href="#play-bold"></use></svg>