<svg xmlns:xlink="http://www.w3.org/1999/xlink" xmlns="http://www.w3.org/2000/svg" class="icon" focusable="false" aria-hidden="true" width="96"  height="96" ><defs><symbol viewBox="0 0 96 96" id="search-regular" xmlns="http://www.w3.org/2000/svg"><path d="M39.864 3.366c20.16 0 36.502 16.342 36.502 36.498a36.36 36.36 0 01-8.983 23.984l25.25 25.25-3.535 3.536-25.25-25.25a36.362 36.362 0 01-23.984 8.982c-20.156 0-36.498-16.342-36.498-36.502 0-20.155 16.343-36.498 36.498-36.498zm0 5c-17.393 0-31.498 14.105-31.498 31.498 0 17.399 14.103 31.502 31.498 31.502 17.4 0 31.502-14.102 31.502-31.502 0-17.395-14.103-31.498-31.502-31.498z"></path></symbol></defs>
              <use xlink:href="#search-regular" href="#search-regular"></use>
            </svg>